<?xml version="1.0" encoding="UTF-8"?>
<!-- Generator: Adobe Illustrator 19.1.0, SVG Export Plug-In . SVG Version: 6.00 Build 0)  -->
<svg xmlns="http://www.w3.org/2000/svg" xmlns:xlink="http://www.w3.org/1999/xlink" xmlns:dc="http://purl.org/dc/elements/1.1/" xmlns:cc="http://creativecommons.org/ns#" xmlns:rdf="http://www.w3.org/1999/02/22-rdf-syntax-ns#" version="1.1" id="DESIGNS" x="0px" y="0px" width="32px" height="32px" viewBox="0 0 32 32" style="enable-background:new 0 0 32 32;" xml:space="preserve">
<title property="dc:title">to poop</title><desc property="dc:description">An icon for "poop" from the Blueprint series on to [icon]. Downloaded from http://www.toicon.com/icons/blueprint_poop by 127.0.0.1 on 2017-07-10. Licensed CC-BY, see http://toicon.com/license/ for details.</desc>
<path class="blueprint_een" d="M12,7H9V6h3V7z M26,2v3c0,0.552-0.448,1-1,1h-1v8c0.552,0,1,0.448,1,1v3c0,0.552-0.448,1-1,1v0.307  c0,2.047-1.228,3.861-3.129,4.621C19.735,24.383,19,25.468,19,26.693V27h2c1.103,0,2,0.897,2,2v2c0,0.552-0.448,1-1,1H8  c-0.552,0-1-0.448-1-1v-2c0-1.103,0.897-2,2-2h2v-0.307c0-1.224-0.735-2.309-1.871-2.764C7.228,23.168,6,21.354,6,19.307V19  c-0.552,0-1-0.448-1-1v-3c0-0.552,0.448-1,1-1V6H5C4.448,6,4,5.552,4,5V2c0-1.103,0.897-2,2-2h18C25.103,0,26,0.897,26,2z M22,18H8  v1.307c0,1.224,0.735,2.309,1.871,2.764C11.772,22.832,13,24.646,13,26.693V28h4v-1.307c0-2.047,1.228-3.861,3.129-4.621  C21.265,21.617,22,20.532,22,19.307V18z M21,29H9v1h12V29z M6,4h18V2H6V4z M22,5H8v10h14V5z M23,17v-1H7v1H23z" style="fill: #111918;"/>
<metadata><work rdf:about=""><format>image/svg+xml</format><type rdf:resource="http://purl.org/dc/dcmitype/StillImage"/><license rdf:resource="http://creativecommons.org/licenses/by/4.0/"/><attributionname>Shannon E Thomas</attributionname><attributionurl>http://www.toicon.com/icons/blueprint_poop</attributionurl></work></metadata></svg>
